<?xml version="1.0" standalone="no"?>
<!DOCTYPE svg PUBLIC "-//W3C//DTD SVG 20010904//EN"
 "http://www.w3.org/TR/2001/REC-SVG-20010904/DTD/svg10.dtd">
<svg version="1.0" xmlns="http://www.w3.org/2000/svg"
 width="512.000000pt" height="512.000000pt" viewBox="0 0 512.000000 512.000000"
 preserveAspectRatio="xMidYMid meet">

<g transform="translate(0.000000,512.000000) scale(0.100000,-0.100000)"
fill="#5353a5" stroke="none">
<path d="M935 5024 c-89 -46 -95 -66 -95 -299 l0 -195 -187 0 c-201 0 -243 -9
-286 -58 -48 -53 -46 35 -47 -2162 0 -1391 3 -2077 10 -2102 14 -48 55 -97 97
-114 27 -12 304 -14 1633 -14 1575 0 1601 0 1640 20 65 33 84 71 88 172 l4 88
411 0 412 0 52 24 c64 30 108 87 123 160 7 36 10 266 8 727 -3 744 1 700 -67
772 -56 61 -91 70 -268 75 l-163 4 0 1155 c0 1011 -2 1159 -15 1187 -23 48
-522 542 -567 561 -33 13 -191 15 -1395 15 -1212 0 -1361 -2 -1388 -16z m2675
-368 c0 -322 -8 -315 323 -315 l207 -1 0 -1110 0 -1110 -175 0 -175 0 0 894
c0 599 -3 904 -10 923 -16 41 -526 551 -575 574 -38 18 -85 19 -1122 19
l-1083 0 0 175 0 175 1305 0 1305 0 0 -224z m410 -148 c0 -5 -56 -8 -125 -8
l-125 0 0 132 0 133 125 -125 c69 -69 125 -128 125 -132z m-920 -375 l5 -233
33 -32 32 -33 230 -3 230 -3 0 -855 0 -854 -402 0 c-239 0 -421 -5 -448 -11
-62 -14 -116 -54 -148 -108 l-27 -46 -3 -695 c-2 -505 0 -707 9 -737 15 -54
72 -121 123 -144 38 -17 75 -19 469 -19 l427 0 0 -60 0 -60 -1572 2 -1573 3
-3 2050 c-1 1128 0 2056 3 2063 3 10 270 12 1307 10 l1303 -3 5 -232z m410
-135 c0 -5 -56 -8 -125 -8 l-125 0 0 132 0 133 125 -125 c69 -69 125 -128 125
-132z m1084 -2049 c13 -7 30 -23 36 -38 7 -18 10 -228 8 -688 -3 -634 -4 -662
-22 -682 l-19 -21 -899 0 c-885 0 -898 0 -918 20 -20 20 -20 33 -20 691 0 455
3 677 11 690 6 11 20 24 32 29 34 14 1761 13 1791 -1z"/>
<path d="M831 4023 c-34 -29 -37 -74 -8 -109 l25 -29 819 -2 c880 -3 855 -4
880 49 16 31 1 83 -27 98 -12 6 -325 10 -843 10 -771 0 -826 -1 -846 -17z"/>
<path d="M829 3461 c-16 -16 -29 -36 -29 -45 0 -28 22 -64 47 -75 17 -8 364
-11 1219 -11 l1195 0 24 25 c16 15 25 36 25 55 0 19 -9 40 -25 55 l-24 25
-1201 0 -1202 0 -29 -29z"/>
<path d="M853 2930 c-34 -14 -56 -54 -48 -90 14 -64 -71 -60 1255 -60 l1207 0
21 23 c22 23 28 60 16 92 -18 46 13 45 -1246 44 -659 0 -1193 -4 -1205 -9z"/>
<path d="M829 2361 c-31 -25 -32 -83 -1 -114 l23 -22 1187 -3 c653 -1 1197 0
1210 3 61 15 83 92 39 133 l-23 22 -1206 0 c-1163 0 -1207 -1 -1229 -19z"/>
<path d="M839 1817 c-20 -15 -39 -51 -39 -72 0 -9 13 -30 29 -46 l29 -29 667
0 c565 0 670 2 694 15 48 24 56 81 16 120 l-24 25 -678 0 c-517 -1 -682 -4
-694 -13z"/>
<path d="M829 1251 c-16 -16 -29 -37 -29 -46 0 -24 27 -72 45 -79 9 -3 320 -6
691 -6 l675 0 24 25 c33 33 32 70 -4 106 l-29 29 -672 0 -672 0 -29 -29z"/>
<path d="M829 701 c-31 -25 -32 -83 -1 -114 l23 -22 680 0 681 0 24 28 c29 34
31 66 3 101 l-20 26 -684 0 c-652 0 -684 -1 -706 -19z"/>
<path d="M3753 1698 c-15 -17 -53 -141 -132 -438 -61 -229 -111 -426 -111
-438 0 -33 43 -72 78 -72 62 0 64 6 187 464 72 268 112 438 109 453 -14 53
-93 72 -131 31z"/>
<path d="M3348 1612 c-17 -7 -359 -293 -390 -326 -18 -20 -23 -51 -12 -81 4
-9 94 -91 201 -181 169 -142 199 -164 229 -164 45 0 74 29 74 76 0 42 -6 48
-178 193 -68 56 -122 106 -120 111 2 4 64 58 138 120 74 62 141 119 148 128
18 23 15 76 -5 100 -20 24 -59 35 -85 24z"/>
<path d="M3990 1607 c-33 -17 -55 -57 -47 -89 5 -17 58 -69 158 -153 144 -122
150 -128 132 -145 -10 -9 -75 -65 -145 -124 -131 -109 -148 -129 -148 -166 0
-33 44 -70 82 -70 28 0 62 25 223 160 104 88 195 171 202 185 26 48 9 69 -186
234 -175 148 -218 181 -238 181 -4 0 -19 -6 -33 -13z"/>
</g>
</svg>
